<svg xmlns="http://www.w3.org/2000/svg" viewBox="0 0 100 100" fill-rule="evenodd"><g class="t-group-origins"><path d="M49.995 99.999c-6.845-.009-12.41-4.322-12.405-9.614V62.402l-27.984-.007c-2.635-.009-5.108-1.344-6.929-3.792C.954 56.286.003 53.228.001 49.992c0-6.843 4.312-12.409 9.613-12.409l27.984.008.004-27.992C37.607 4.307 43.177.002 50.019.002c3.233.002 6.289.953 8.605 2.676 2.447 1.82 3.793 4.28 3.792 6.927v27.991l27.984.003c2.65 0 5.112 1.349 6.933 3.798 1.723 2.319 2.671 5.377 2.669 8.612 0 6.841-4.311 12.407-9.609 12.407H62.417l-.009 27.973c-.006 5.299-5.574 9.61-12.413 9.61zM9.604 59.481l29.441.008c.805 0 1.456.652 1.456 1.456v29.441c-.003 3.688 4.256 6.693 9.494 6.7 5.233 0 9.494-3.006 9.497-6.702l.009-29.428c0-.804.652-1.456 1.456-1.456h29.432c3.693 0 6.697-4.26 6.697-9.496.002-2.613-.742-5.054-2.094-6.874-1.256-1.691-2.889-2.623-4.595-2.623l-29.44-.004a1.456 1.456 0 0 1-1.456-1.456V9.597c.002-1.703-.928-3.332-2.617-4.589-1.818-1.352-4.257-2.098-6.868-2.1-5.236 0-9.5 2.999-9.503 6.686l-.004 29.448a1.456 1.456 0 0 1-1.457 1.457l-29.441-.008c-3.694 0-6.7 4.26-6.7 9.496.002 2.614.748 5.056 2.101 6.874 1.256 1.688 2.885 2.618 4.587 2.618l.005.002zM60.95 90.386h.009-.009z" stroke-width="0.5" stroke="black" fill="black" stroke-width-old="0"></path></g></svg>
