<svg xmlns="http://www.w3.org/2000/svg" viewBox="0 0 100 100" fill-rule="evenodd"><g class="t-group-origins"><path d="M94.186 49.632h-7.719V36.603a1.5 1.5 0 0 0-1.5-1.5H60.781v-13a1.5 1.5 0 0 0-1.5-1.5H5.814a1.5 1.5 0 0 0-1.5 1.5v48.965a1.5 1.5 0 0 0 1.5 1.5H18.29c.522 3.849 3.823 6.829 7.816 6.829 3.983 0 7.278-2.98 7.798-6.829h35.013c.522 3.851 3.823 6.831 7.816 6.831 3.992 0 7.294-2.98 7.815-6.831h9.637a1.5 1.5 0 0 0 1.5-1.5V51.132a1.5 1.5 0 0 0-1.499-1.5zm-68.08 26.765a4.899 4.899 0 0 1-4.896-4.891 4.902 4.902 0 0 1 4.896-4.896c2.69 0 4.878 2.196 4.878 4.896 0 2.697-2.188 4.891-4.878 4.891zm0-12.786c-3.684 0-6.778 2.539-7.645 5.957H7.314V23.603h50.467v45.966H33.734c-.866-3.418-3.953-5.958-7.628-5.958zm50.627 12.788c-2.7 0-4.896-2.195-4.896-4.894s2.196-4.893 4.896-4.893c2.699 0 4.896 2.194 4.896 4.893s-2.196 4.894-4.896 4.894zm15.953-6.831h-8.307c-.868-3.416-3.961-5.955-7.645-5.955-3.685 0-6.778 2.539-7.646 5.955h-8.306V38.103h22.686v13.029a1.5 1.5 0 0 0 1.5 1.5h7.719v16.936z" stroke-width="0.5" stroke="black" fill="black" stroke-width-old="0"></path></g></svg>
